# xmcd CD Database Entry
#
# Track frame offsets:
# 150
# 13307
# 22994
# 32907
# 44807
# 55134
# 64647
# 75605
# 88288
# 99411
# 112294
# 122502
# 132618
# 144179
# 156645
# 166273
# 177492
# 186570
#
# Disc length: 2609 seconds
#
# Revision: 1
# Processed by: cddbd v1.5.1PL0 Copyright (c) Steve Scherf et al.
# Submitted via: tcd 2.0b
#
DISCID=0a0a2f12
DTITLE=RECORDANDO LOS 50
DYEAR=1900
DGENRE=
TTITLE0=MY SPECIAL ANGEL
TTITLE1=LITTLE DARLIN
TTITLE2=BLUE MOON
TTITLE3=AT THE HOP
TTITLE4=LOVE LETTERS IN THE SAND
TTITLE5=GOOD GOLLY MISS MOLLY
TTITLE6=SINGING THE BLUES
TTITLE7=JUST WALKING IN THE RAIN
TTITLE8=COME SOFTLY TO ME
TTITLE9=SH-BOOM
TTITLE10=BLUE SUEDE SHOES
TTITLE11=VENUS
TTITLE12=ROCKIN' ROBIN
TTITLE13=MY PRAYER
TTITLE14=THERE GOES MY BABY
TTITLE15=KANSAS CITY
TTITLE16=WAKE UP LITTLE SUSIE
TTITLE17=LONG TALL SALLY
EXTD=
EXTT0=
EXTT1=
EXTT2=
EXTT3=
EXTT4=
EXTT5=
EXTT6=
EXTT7=
EXTT8=
EXTT9=
EXTT10=
EXTT11=
EXTT12=
EXTT13=
EXTT14=
EXTT15=
EXTT16=
EXTT17=
PLAYORDER=
